<svg width="65" height="64" viewBox="0 0 65 64" fill="none" xmlns="http://www.w3.org/2000/svg">
<rect x="0.240234" width="64" height="64" rx="32" fill="#E3EEFD"/>
<g clip-path="url(#clip0_3_1451)">
<path d="M23.2736 29.9833C25.6736 34.7 29.5402 38.55 34.2569 40.9667L37.9236 37.3C38.3736 36.85 39.0402 36.7 39.6236 36.9C41.4902 37.5167 43.5069 37.85 45.5736 37.85C46.4902 37.85 47.2402 38.6 47.2402 39.5167V45.3333C47.2402 46.25 46.4902 47 45.5736 47C29.9236 47 17.2402 34.3167 17.2402 18.6667C17.2402 17.75 17.9902 17 18.9069 17H24.7402C25.6569 17 26.4069 17.75 26.4069 18.6667C26.4069 20.75 26.7402 22.75 27.3569 24.6167C27.5402 25.2 27.4069 25.85 26.9402 26.3167L23.2736 29.9833Z" fill="#1A477E"/>
</g>
<defs>
<clipPath id="clip0_3_1451">
<rect width="40" height="40" fill="white" transform="translate(12.2402 12)"/>
</clipPath>
</defs>
</svg>
