<svg width="65" height="64" viewBox="0 0 65 64" fill="none" xmlns="http://www.w3.org/2000/svg">
<rect x="0.240234" width="64" height="64" rx="32" fill="#E3EEFD"/>
<g clip-path="url(#clip0_3_1445)">
<path d="M32.2403 15.3334C25.7903 15.3334 20.5736 20.55 20.5736 27C20.5736 29.9 21.4069 32.6167 22.9236 35.0667C24.5069 37.6334 26.5903 39.8334 28.1903 42.4C28.9736 43.65 29.5403 44.8167 30.1403 46.1667C30.5736 47.0834 30.9236 48.6667 32.2403 48.6667C33.5569 48.6667 33.9069 47.0834 34.3236 46.1667C34.9403 44.8167 35.4903 43.65 36.2736 42.4C37.8736 39.85 39.9569 37.65 41.5403 35.0667C43.0736 32.6167 43.9069 29.9 43.9069 27C43.9069 20.55 38.6903 15.3334 32.2403 15.3334ZM32.2403 31.5834C29.9403 31.5834 28.0736 29.7167 28.0736 27.4167C28.0736 25.1167 29.9403 23.25 32.2403 23.25C34.5403 23.25 36.4069 25.1167 36.4069 27.4167C36.4069 29.7167 34.5403 31.5834 32.2403 31.5834Z" fill="#1A477E"/>
</g>
<defs>
<clipPath id="clip0_3_1445">
<rect width="40" height="40" fill="white" transform="translate(12.2402 12)"/>
</clipPath>
</defs>
</svg>
