<svg width="24" height="24" viewBox="0 0 24 24" fill="none" xmlns="http://www.w3.org/2000/svg">
<g opacity="0.75" clip-path="url(#clip0_3_1412)">
<path d="M12 0C18.6264 0 24 5.3736 24 12C24 18.6264 18.6264 24 12 24C5.3736 24 0 18.6264 0 12C0 5.3736 5.3736 0 12 0Z" fill="#1DA1F2"/>
<path d="M9.21596 18.0961C14.8752 18.0961 17.9736 13.4065 17.9736 9.33847C17.9736 9.20647 17.9736 9.07207 17.964 8.94007C18.5664 8.50327 19.0872 7.96567 19.5 7.34647C18.9384 7.59607 18.3432 7.75927 17.7336 7.83127C18.3768 7.44727 18.8568 6.84247 19.0872 6.12967C18.4824 6.48727 17.8224 6.74167 17.1336 6.87607C15.9672 5.63767 14.0184 5.57767 12.78 6.74167C11.9808 7.49287 11.6424 8.61367 11.8896 9.68167C9.41516 9.55687 7.10876 8.38807 5.54636 6.46567C4.73036 7.87207 5.14556 9.66967 6.49916 10.5745C6.00956 10.5601 5.52956 10.4281 5.10236 10.1905C5.10236 10.2025 5.10236 10.2169 5.10236 10.2289C5.10236 11.6929 6.13436 12.9553 7.57196 13.2457C7.11836 13.3681 6.64316 13.3873 6.18236 13.2985C6.58556 14.5513 7.73996 15.4105 9.05756 15.4369C7.96796 16.2937 6.62156 16.7593 5.23676 16.7569C4.99196 16.7569 4.74716 16.7425 4.50476 16.7113C5.90636 17.6161 7.54556 18.0961 9.21596 18.0937" fill="white"/>
</g>
<defs>
<clipPath id="clip0_3_1412">
<rect width="24" height="24" fill="white"/>
</clipPath>
</defs>
</svg>
